<svg width="627" height="200" viewBox="0 0 627 200" fill="none" xmlns="http://www.w3.org/2000/svg">
<path d="M15.233 1.39999H34.305L48.897 91H34.817L32.257 73.208V73.464H16.257L13.697 91H0.641022L15.233 1.39999ZM30.593 61.304L24.321 17.016H24.065L17.921 61.304H30.593Z" fill="white"/>
<path d="M64.432 1.39999H78.512V39.16L96.432 1.39999H110.512L93.744 34.296L110.768 91H96.048L84.144 51.064L78.512 62.456V91H64.432V1.39999Z" fill="white"/>
<path d="M126.136 1.39999H147.384C154.637 1.39999 159.928 3.10666 163.256 6.52C166.584 9.84799 168.248 15.0107 168.248 22.008V25.592C168.248 30.2 167.48 33.9547 165.944 36.856C164.493 39.7573 162.232 41.848 159.16 43.128V43.384C166.157 45.7733 169.656 52.0027 169.656 62.072V69.752C169.656 76.664 167.821 81.9547 164.152 85.624C160.568 89.208 155.277 91 148.28 91H126.136V1.39999ZM145.72 37.88C148.536 37.88 150.627 37.1547 151.992 35.704C153.443 34.2533 154.168 31.8213 154.168 28.408V23.416C154.168 20.1733 153.571 17.8267 152.376 16.376C151.267 14.9253 149.475 14.2 147 14.2H140.216V37.88H145.72ZM148.28 78.2C150.755 78.2 152.589 77.56 153.784 76.28C154.979 74.9147 155.576 72.6107 155.576 69.368V61.56C155.576 57.464 154.851 54.648 153.4 53.112C152.035 51.4907 149.731 50.68 146.488 50.68H140.216V78.2H148.28Z" fill="white"/>
<path d="M197.47 1.39999H216.542L231.134 91H217.054L214.494 73.208V73.464H198.494L195.934 91H182.878L197.47 1.39999ZM212.83 61.304L206.558 17.016H206.302L200.158 61.304H212.83Z" fill="white"/>
<path d="M246.669 1.39999H267.533C274.786 1.39999 280.077 3.10666 283.405 6.52C286.733 9.84799 288.397 15.0107 288.397 22.008V27.512C288.397 36.8133 285.325 42.7013 279.181 45.176V45.432C282.594 46.456 284.984 48.5467 286.349 51.704C287.8 54.8613 288.525 59.0853 288.525 64.376V80.12C288.525 82.68 288.61 84.7707 288.781 86.392C288.952 87.928 289.378 89.464 290.061 91H275.725C275.213 89.5493 274.872 88.184 274.701 86.904C274.53 85.624 274.445 83.32 274.445 79.992V63.608C274.445 59.512 273.762 56.6533 272.397 55.032C271.117 53.4107 268.856 52.6 265.613 52.6H260.749V91H246.669V1.39999ZM265.869 39.8C268.685 39.8 270.776 39.0747 272.141 37.624C273.592 36.1733 274.317 33.7413 274.317 30.328V23.416C274.317 20.1733 273.72 17.8267 272.525 16.376C271.416 14.9253 269.624 14.2 267.149 14.2H260.749V39.8H265.869Z" fill="white"/>
<path d="M347.082 1.39999H366.154L380.746 91H366.666L364.106 73.208V73.464H348.106L345.546 91H332.49L347.082 1.39999ZM362.442 61.304L356.17 17.016H355.914L349.77 61.304H362.442Z" fill="white"/>
<path d="M396.281 1.39999H413.945L427.641 55.032H427.897V1.39999H440.441V91H425.977L409.081 25.592H408.825V91H396.281V1.39999Z" fill="white"/>
<path d="M480.09 92.28C473.263 92.28 468.058 90.36 464.474 86.52C460.89 82.5947 459.098 77.0053 459.098 69.752V1.39999H473.178V70.776C473.178 73.848 473.775 76.0667 474.97 77.432C476.25 78.7973 478.042 79.48 480.346 79.48C482.65 79.48 484.399 78.7973 485.594 77.432C486.874 76.0667 487.514 73.848 487.514 70.776V1.39999H501.082V69.752C501.082 77.0053 499.29 82.5947 495.706 86.52C492.122 90.36 486.917 92.28 480.09 92.28Z" fill="white"/>
<path d="M519.814 1.39999H537.478L551.174 55.032H551.43V1.39999H563.974V91H549.51L532.614 25.592H532.358V91H519.814V1.39999Z" fill="white"/>
<path d="M603.111 92.28C596.284 92.28 591.079 90.36 587.495 86.52C583.911 82.5947 582.119 77.0053 582.119 69.752V22.648C582.119 15.3947 583.911 9.848 587.495 6.008C591.079 2.08266 596.284 0.119995 603.111 0.119995C609.938 0.119995 615.143 2.08266 618.727 6.008C622.311 9.848 624.103 15.3947 624.103 22.648V30.328H610.791V21.752C610.791 15.864 608.359 12.92 603.495 12.92C598.631 12.92 596.199 15.864 596.199 21.752V70.776C596.199 76.5787 598.631 79.48 603.495 79.48C608.359 79.48 610.791 76.5787 610.791 70.776V53.24H603.751V40.44H624.103V69.752C624.103 77.0053 622.311 82.5947 618.727 86.52C615.143 90.36 609.938 92.28 603.111 92.28Z" fill="white"/>
<path d="M17.176 159.856L0.152008 108.4H15.128L24.728 141.296H24.984L34.584 108.4H48.28L31.256 159.856V198H17.176V159.856Z" fill="white"/>
<path d="M75.103 199.28C68.2763 199.28 63.071 197.36 59.487 193.52C55.903 189.595 54.111 184.005 54.111 176.752V108.4H68.191V177.776C68.191 180.848 68.7883 183.067 69.983 184.432C71.263 185.797 73.055 186.48 75.359 186.48C77.663 186.48 79.4123 185.797 80.607 184.432C81.887 183.067 82.527 180.848 82.527 177.776V108.4H96.095V176.752C96.095 184.005 94.303 189.595 90.719 193.52C87.135 197.36 81.9297 199.28 75.103 199.28Z" fill="white"/>
<path d="M106.123 108.4H127.627C134.624 108.4 139.872 110.277 143.371 114.032C146.87 117.787 148.619 123.291 148.619 130.544V175.856C148.619 183.109 146.87 188.613 143.371 192.368C139.872 196.123 134.624 198 127.627 198H106.123V108.4ZM127.371 185.2C129.675 185.2 131.424 184.517 132.619 183.152C133.899 181.787 134.539 179.568 134.539 176.496V129.904C134.539 126.832 133.899 124.613 132.619 123.248C131.424 121.883 129.675 121.2 127.371 121.2H120.203V185.2H127.371Z" fill="white"/>
<path d="M158.123 108.4H172.203V144.88H187.307V108.4H201.387V198H187.307V157.68H172.203V198H158.123V108.4Z" fill="white"/>
<path d="M222.753 108.4H241.825L256.417 198H242.337L239.777 180.208V180.464H223.777L221.217 198H208.161L222.753 108.4ZM238.113 168.304L231.841 124.016H231.585L225.441 168.304H238.113Z" fill="white"/>
<path d="M302.052 199.28C295.225 199.28 290.063 197.36 286.564 193.52C283.065 189.595 281.316 184.005 281.316 176.752V171.632H294.628V177.776C294.628 183.579 297.06 186.48 301.924 186.48C304.313 186.48 306.105 185.797 307.3 184.432C308.58 182.981 309.22 180.677 309.22 177.52C309.22 173.765 308.367 170.48 306.66 167.664C304.953 164.763 301.796 161.307 297.188 157.296C291.385 152.176 287.332 147.568 285.028 143.472C282.724 139.291 281.572 134.597 281.572 129.392C281.572 122.309 283.364 116.848 286.948 113.008C290.532 109.083 295.737 107.12 302.564 107.12C309.305 107.12 314.383 109.083 317.796 113.008C321.295 116.848 323.044 122.395 323.044 129.648V133.36H309.732V128.752C309.732 125.68 309.135 123.461 307.94 122.096C306.745 120.645 304.996 119.92 302.692 119.92C297.999 119.92 295.652 122.779 295.652 128.496C295.652 131.739 296.505 134.768 298.212 137.584C300.004 140.4 303.204 143.813 307.812 147.824C313.7 152.944 317.753 157.595 319.972 161.776C322.191 165.957 323.3 170.864 323.3 176.496C323.3 183.835 321.465 189.467 317.796 193.392C314.212 197.317 308.964 199.28 302.052 199.28Z" fill="white"/>
<path d="M341.878 108.4H360.95L375.542 198H361.462L358.902 180.208V180.464H342.902L340.342 198H327.286L341.878 108.4ZM357.238 168.304L350.966 124.016H350.71L344.566 168.304H357.238Z" fill="white"/>
<path d="M382.373 108.4H403.109C410.106 108.4 415.354 110.277 418.853 114.032C422.352 117.787 424.101 123.291 424.101 130.544V139.376C424.101 146.629 422.352 152.133 418.853 155.888C415.354 159.643 410.106 161.52 403.109 161.52H396.453V198H382.373V108.4ZM403.109 148.72C405.413 148.72 407.12 148.08 408.229 146.8C409.424 145.52 410.021 143.344 410.021 140.272V129.648C410.021 126.576 409.424 124.4 408.229 123.12C407.12 121.84 405.413 121.2 403.109 121.2H396.453V148.72H403.109Z" fill="white"/>
<path d="M452.228 199.28C445.401 199.28 440.196 197.36 436.612 193.52C433.028 189.595 431.236 184.005 431.236 176.752V108.4H445.316V177.776C445.316 180.848 445.913 183.067 447.108 184.432C448.388 185.797 450.18 186.48 452.484 186.48C454.788 186.48 456.537 185.797 457.732 184.432C459.012 183.067 459.652 180.848 459.652 177.776V108.4H473.22V176.752C473.22 184.005 471.428 189.595 467.844 193.52C464.26 197.36 459.055 199.28 452.228 199.28Z" fill="white"/>
<path d="M494.256 121.2H479.536V108.4H523.056V121.2H508.336V198H494.256V121.2Z" fill="white"/>
<path d="M529.873 108.4H550.737C557.99 108.4 563.281 110.107 566.609 113.52C569.937 116.848 571.601 122.011 571.601 129.008V134.512C571.601 143.813 568.529 149.701 562.385 152.176V152.432C565.798 153.456 568.188 155.547 569.553 158.704C571.004 161.861 571.729 166.085 571.729 171.376V187.12C571.729 189.68 571.814 191.771 571.985 193.392C572.156 194.928 572.582 196.464 573.265 198H558.929C558.417 196.549 558.076 195.184 557.905 193.904C557.734 192.624 557.649 190.32 557.649 186.992V170.608C557.649 166.512 556.966 163.653 555.601 162.032C554.321 160.411 552.06 159.6 548.817 159.6H543.953V198H529.873V108.4ZM549.073 146.8C551.889 146.8 553.98 146.075 555.345 144.624C556.796 143.173 557.521 140.741 557.521 137.328V130.416C557.521 127.173 556.924 124.827 555.729 123.376C554.62 121.925 552.828 121.2 550.353 121.2H543.953V146.8H549.073Z" fill="white"/>
<path d="M592.378 108.4H611.45L626.042 198H611.962L609.402 180.208V180.464H593.402L590.842 198H577.786L592.378 108.4ZM607.738 168.304L601.466 124.016H601.21L595.066 168.304H607.738Z" fill="white"/>
</svg>
